<?xml version="1.0" encoding="UTF-8"?>
<svg xmlns="http://www.w3.org/2000/svg" xmlns:xlink="http://www.w3.org/1999/xlink" width="24px" height="24px" viewBox="0 0 24 24" version="1.1">
<g id="surface1">
<path style=" stroke:none;fill-rule:nonzero;fill:rgb(0%,0%,0%);fill-opacity:1;" d="M 4.714844 18.324219 L 4.714844 5.609375 C 4.714844 5.472656 4.738281 5.335938 4.757812 5.203125 L 1.113281 6.390625 C 0.269531 6.664062 -0.195312 7.578125 0.078125 8.425781 L 4.007812 20.515625 C 4.230469 21.199219 4.871094 21.632812 5.550781 21.632812 C 5.714844 21.632812 5.882812 21.605469 6.046875 21.554688 L 7.082031 21.214844 C 5.742188 20.945312 4.714844 19.738281 4.714844 18.324219 Z M 4.714844 18.324219 "/>
<path style=" stroke:none;fill-rule:nonzero;fill:rgb(0%,0%,0%);fill-opacity:1;" d="M 7.363281 16.425781 L 11.289062 4.335938 C 11.332031 4.214844 11.378906 4.066406 11.429688 3.984375 L 7.652344 3.984375 C 6.761719 3.984375 6.007812 4.71875 6.007812 5.609375 L 6.007812 18.324219 C 6.007812 19.210938 6.761719 19.984375 7.652344 19.984375 L 8.941406 19.984375 C 7.601562 19.339844 6.898438 17.851562 7.363281 16.425781 Z M 7.363281 16.425781 "/>
<path style=" stroke:none;fill-rule:nonzero;fill:rgb(0%,0%,0%);fill-opacity:1;" d="M 22.855469 6.390625 L 14.554688 3.691406 C 14.390625 3.636719 14.226562 3.613281 14.0625 3.613281 C 13.378906 3.613281 12.742188 4.046875 12.519531 4.730469 L 8.589844 16.820312 C 8.316406 17.667969 8.78125 18.582031 9.628906 18.855469 L 17.929688 21.554688 C 18.09375 21.605469 18.261719 21.632812 18.425781 21.632812 C 19.105469 21.632812 19.742188 21.199219 19.964844 20.515625 L 23.894531 8.425781 C 24.167969 7.578125 23.703125 6.664062 22.855469 6.390625 Z M 15.097656 15.84375 C 11.183594 11.089844 13.464844 8.726562 14.90625 8.734375 C 16.125 8.738281 16.617188 9.609375 16.828125 10.507812 C 17.480469 9.792969 18.441406 9.492188 19.429688 10.203125 C 20.597656 11.042969 21.058594 14.296875 15.097656 15.84375 Z M 15.097656 15.84375 "/>
<path style="fill-rule:nonzero;fill:rgb(0%,0%,0%);fill-opacity:1;stroke-width:1;stroke-linecap:butt;stroke-linejoin:miter;stroke:rgb(0%,0%,0%);stroke-opacity:1;stroke-miterlimit:4;" d="M 157.346191 92.329102 L 251.318848 92.329102 L 251.318848 202.350586 L 157.346191 202.350586 Z M 157.346191 92.329102 " transform="matrix(0.0808081,0,0,0.0808081,0,0)"/>
</g>
</svg>
