<svg width="550" height="132" xmlns="http://www.w3.org/2000/svg" data-name="Layer 1">

 <g>
  <title>Layer 1</title>
  <g id="svg_1">
   <path id="svg_2" d="m98.01,40.7l-24.64,0c-1.25,-12.57 -9.46,-18.86 -24.64,-18.86s-22.22,4.85 -22.22,14.56c0,3.98 1.49,7.19 4.48,9.61c2.99,2.43 7.9,4.45 14.75,6.07c18.17,4.36 30.43,7.97 36.78,10.83c6.1,2.74 10.86,6.41 14.28,11.02c3.42,4.61 5.13,10.95 5.13,19.04c0,13.19 -4.45,23.06 -13.35,29.59c-8.9,6.53 -20.94,9.8 -36.12,9.8s-28.44,-3.52 -37.9,-10.55c-9.46,-7.03 -14.31,-17.33 -14.56,-30.9l25.02,0c0.12,6.35 2.67,11.36 7.65,15.03c4.98,3.67 11.64,5.51 19.98,5.51c7.59,0 13.5,-1.55 17.74,-4.67c4.23,-3.11 6.35,-7.4 6.35,-12.88c0,-3.86 -1.37,-7.03 -4.11,-9.52c-2.74,-2.49 -7.78,-4.54 -15.12,-6.16c-16.55,-3.61 -27.88,-6.78 -33.98,-9.52c-13.82,-6.22 -20.72,-16.43 -20.72,-30.62c0,-11.45 3.89,-20.66 11.67,-27.63c7.78,-6.97 19.01,-10.45 33.7,-10.45s27.32,3.73 36.03,11.2c8.71,7.47 13.32,17.3 13.81,29.5l-0.01,0z"/>
   <path id="svg_3" d="m188.93,128.07l-22.59,0c-0.75,-2.36 -1.25,-5.1 -1.49,-8.21c-6.47,7.09 -15.75,10.64 -27.82,10.64c-10.08,0 -17.71,-2.27 -22.87,-6.81c-5.17,-4.54 -7.75,-10.67 -7.75,-18.39c0,-5.1 0.75,-9.52 2.24,-13.26c1.49,-3.73 3.27,-6.66 5.32,-8.77c2.05,-2.11 5.2,-3.92 9.43,-5.41c4.23,-1.49 7.96,-2.55 11.2,-3.17c3.23,-0.62 7.9,-1.37 14,-2.24c5.97,-0.87 10.05,-2.02 12.23,-3.45c2.18,-1.43 3.27,-3.76 3.27,-7c0,-2.99 -1.4,-5.32 -4.2,-7c-2.8,-1.68 -6.57,-2.52 -11.29,-2.52c-9.83,0 -15.37,4.54 -16.62,13.63l-22.59,0c0.37,-21.53 13.81,-32.3 40.32,-32.3c14.06,0 24.11,3.02 30.15,9.05c6.04,6.04 9.05,15.09 9.05,27.16l0,58.06l0.01,-0.01zm-24.46,-34.91l0.19,-10.08c-1.99,1.99 -7.22,3.8 -15.68,5.41c-6.85,1.24 -11.61,2.96 -14.28,5.13c-2.68,2.18 -4.01,5.26 -4.01,9.24c0,6.85 3.92,10.27 11.76,10.27c6.22,0 11.42,-1.96 15.59,-5.88c4.17,-3.92 6.32,-8.62 6.44,-14.1l-0.01,0.01z"/>
   <path id="svg_4" d="m283.2,128.07l-27.26,0l-20.16,-41.26l-11.76,12.13l0,29.12l-24.46,0l0,-125.46l24.46,0l0,68.52l30.24,-34.91l29.68,0l-30.8,33.79l30.06,58.06l0,0.01z"/>
   <path id="svg_5" d="m365.53,88.49l-63.29,0c0.37,6.97 2.39,12.51 6.07,16.62c3.67,4.11 8.49,6.16 14.47,6.16c3.98,0 7.5,-0.93 10.55,-2.8c3.05,-1.87 5.01,-4.36 5.88,-7.47l25.02,0c-2.74,9.33 -7.69,16.59 -14.84,21.75c-7.16,5.17 -15.65,7.75 -25.48,7.75c-30.62,0 -45.93,-16.68 -45.93,-50.03c0,-14.31 3.92,-25.67 11.76,-34.07c7.84,-8.4 18.73,-12.6 32.67,-12.6c28.75,0 43.12,18.23 43.12,54.7l0,-0.01zm-62.54,-15.31l37.52,0c-0.13,-6.47 -2.02,-11.45 -5.69,-14.94c-3.67,-3.48 -8.06,-5.23 -13.16,-5.23s-9.21,1.8 -12.7,5.41c-3.49,3.61 -5.48,8.53 -5.97,14.75l0,0.01z"/>
   <path id="svg_6" d="m426.02,91.48l0,-23.9l22.59,0l0,26.14c0,10.46 -3.15,19.2 -9.43,26.23c-6.29,7.03 -15.53,10.55 -27.72,10.55s-22.12,-3.48 -28.28,-10.45c-6.16,-6.97 -9.24,-15.8 -9.24,-26.51l0,-82.14l23.9,0l0,24.83l50.78,0l0,17.18l-50.78,0l0,37.71c0,12.2 4.67,18.3 14,18.3s14.19,-5.97 14.19,-17.92l-0.01,-0.02z"/>
   <path id="svg_7" d="m503.68,130.49c-14.69,0 -26.23,-4.42 -34.63,-13.26c-8.4,-8.83 -12.6,-20.54 -12.6,-35.1s4.26,-26.42 12.79,-35.19c8.52,-8.77 20.01,-13.16 34.44,-13.16s25.67,4.39 34.07,13.16c8.4,8.77 12.6,20.51 12.6,35.19s-4.23,26.26 -12.7,35.1c-8.47,8.84 -19.79,13.26 -33.98,13.26l0.01,0zm0,-20.35c14.81,0 22.22,-9.33 22.22,-28s-7.41,-27.82 -22.22,-27.82s-22.22,9.27 -22.22,27.82s7.4,28 22.22,28z"/>
  </g>
 </g>
</svg>