<svg width="247" height="48" viewBox="0 0 247 48" fill="none" xmlns="http://www.w3.org/2000/svg">
<g clip-path="url(#clip0_4_5538)">
<path d="M92.9779 15.2508H84.6464C84.1658 10.9164 81.442 8.82945 76.3149 8.82945C71.3481 8.82945 68.7845 10.4348 68.7845 13.806C68.7845 15.0903 69.2652 16.2141 70.2265 17.0167C71.1879 17.8194 72.9503 18.4616 75.1934 19.1037C81.2818 20.5485 85.4475 21.8328 87.6906 22.796C89.7735 23.7592 91.3757 25.0435 92.4972 26.4883C93.6188 28.0937 94.2597 30.1806 94.2597 32.9097C94.2597 37.4047 92.8177 40.7759 89.7735 43.0234C86.7293 45.2709 82.7238 46.3947 77.5967 46.3947C72.3094 46.3947 67.9834 45.2709 64.779 42.8629C61.5746 40.4549 59.9724 36.9231 59.8122 32.4281H68.3039C68.3039 34.5151 69.2652 36.2809 70.8674 37.5652C72.6298 38.8495 74.8729 39.4917 77.5967 39.4917C80.1602 39.4917 82.2431 39.01 83.6851 37.8863C85.1271 36.7626 85.768 35.3177 85.768 33.5519C85.768 32.2676 85.2873 31.1438 84.326 30.3412C83.3646 29.5385 81.7624 28.7358 79.1989 28.2542C73.5912 26.9699 69.7459 26.0067 67.663 25.0435C63.0166 22.9565 60.6133 19.4248 60.6133 14.6087C60.6133 10.7559 61.895 7.54516 64.6188 5.29767C67.1823 2.88965 71.0276 1.7659 75.9945 1.7659C81.1215 1.7659 85.2873 3.05018 88.1713 5.61874C91.2155 7.86623 92.8177 11.2375 92.9779 15.2508Z" fill="#F0F0F0"/>
<path d="M123.74 44.9499H116.05C115.729 44.1472 115.569 43.184 115.569 42.2208C113.326 44.6288 110.282 45.9131 106.116 45.9131C102.751 45.9131 100.188 45.1104 98.4254 43.6656C96.6629 42.0602 95.8618 39.9733 95.8618 37.4047C95.8618 35.6388 96.1823 34.194 96.663 32.9097C97.1436 31.6254 97.7845 30.6622 98.4254 29.8596C99.0663 29.2174 100.188 28.5753 101.63 28.0937C103.072 27.6121 104.354 27.291 105.475 26.9699C106.597 26.8094 108.199 26.4883 110.282 26.1673C112.365 25.8462 113.646 25.5251 114.447 25.0435C115.249 24.5619 115.569 23.7592 115.569 22.6355C115.569 21.6723 115.088 20.8696 114.127 20.2275C113.166 19.5853 111.884 19.4248 110.282 19.4248C106.917 19.4248 104.994 21.0301 104.674 24.0803H96.8232C96.9834 16.6957 101.47 13.1639 110.442 13.1639C115.249 13.1639 118.613 14.1271 120.696 16.2141C122.779 18.301 123.74 21.3512 123.74 25.3646V44.9499ZM115.409 33.0703V29.699C114.768 30.3412 113.005 30.9833 110.122 31.4649C107.878 31.9465 106.116 32.4281 105.315 33.2308C104.354 34.0335 104.033 34.9967 104.033 36.4415C104.033 38.689 105.315 39.9733 108.039 39.9733C110.122 39.9733 111.884 39.3311 113.326 38.0469C114.768 36.602 115.409 34.9967 115.409 33.0703Z" fill="#F0F0F0"/>
<path d="M155.785 44.9499H146.492L139.602 30.9833L135.597 35.1572V44.9499H127.265V2.40805H135.597V25.6856L145.851 13.806H155.945L145.53 25.204L155.785 44.9499Z" fill="#F0F0F0"/>
<path d="M183.663 31.6255H162.193C162.354 34.0335 162.994 35.7994 164.276 37.2442C165.558 38.689 167.16 39.3312 169.243 39.3312C170.525 39.3312 171.807 39.0101 172.768 38.3679C173.729 37.7258 174.53 36.9231 174.691 35.7994H183.182C182.221 39.0101 180.619 41.4181 178.215 43.184C175.812 44.9499 172.928 45.7526 169.564 45.7526C159.149 45.7526 154.022 40.1338 154.022 28.7358C154.022 23.9198 155.304 20.0669 158.028 17.1773C160.751 14.2877 164.436 12.8429 169.083 12.8429C178.696 13.0034 183.663 19.1037 183.663 31.6255ZM162.354 26.3278H175.011C175.011 24.0803 174.37 22.475 173.088 21.1907C171.807 20.0669 170.365 19.4248 168.602 19.4248C166.84 19.4248 165.558 20.0669 164.276 21.1907C163.315 22.6355 162.514 24.2409 162.354 26.3278Z" fill="#F0F0F0"/>
<path d="M204.171 32.5887V24.4014H211.862V33.2308C211.862 36.7626 210.74 39.8128 208.657 42.0602C206.575 44.4683 203.37 45.592 199.204 45.592C194.878 45.592 191.674 44.4683 189.591 42.0602C187.508 39.6522 186.387 36.7626 186.387 33.0703V5.2977H194.558V13.8061H211.702V19.5853H194.558V32.4281C194.558 36.6021 196.16 38.689 199.365 38.689C202.569 38.689 204.171 36.6021 204.171 32.5887Z" fill="#F0F0F0"/>
<path d="M230.447 45.7526C225.481 45.7526 221.635 44.3077 218.751 41.2576C215.867 38.2074 214.425 34.3546 214.425 29.378C214.425 24.4014 215.867 20.388 218.751 17.4984C221.635 14.4482 225.481 13.0034 230.447 13.0034C235.254 13.0034 239.099 14.4482 241.983 17.4984C244.867 20.5485 246.309 24.4014 246.309 29.378C246.309 34.3546 244.867 38.3679 241.983 41.2576C239.099 44.3077 235.254 45.7526 230.447 45.7526ZM230.447 38.8495C235.414 38.8495 237.978 35.6388 237.978 29.378C237.978 23.1171 235.414 19.9064 230.447 19.9064C225.481 19.9064 222.917 23.1171 222.917 29.378C222.917 35.7994 225.481 38.8495 230.447 38.8495Z" fill="#F0F0F0"/>
<path d="M32.5746 0L22 16.0535L11.2652 0H32.5746Z" fill="#F0F0F0"/>
<path d="M0.690613 48L22 16.0535L43.1492 48H0.690613Z" fill="#F0F0F0"/>
</g>
<defs>
<clipPath id="clip0_4_5538">
<rect width="245.619" height="48" fill="white" transform="translate(0.690628)"/>
</clipPath>
</defs>
</svg>
